name D:\school\WTK\thesis\model\3dpredictsim\Results\test_WL_v2\Fal_s1_bCst_PF_Natali2010_ls135_k_nonl300_kmtp_ig24_v4.mot
datacolumns 128
datarows 4
range 1.14433811 1.17866825
endheader
time	pelvis_tilt	pelvis_list	pelvis_rotation	pelvis_tx	pelvis_ty	pelvis_tz	hip_flexion_l	hip_adduction_l	hip_rotation_l	hip_flexion_r	hip_adduction_r	hip_rotation_r	knee_angle_l	knee_angle_r	ankle_angle_l	ankle_angle_r	subtalar_angle_l	subtalar_angle_r	tmt_angle_l	tmt_angle_r	mtp_angle_l	mtp_angle_r	lumbar_extension	lumbar_bending	lumbar_rotation	arm_flex_l	arm_add_l	arm_rot_l	arm_flex_r	arm_add_r	arm_rot_r	elbow_flex_l	elbow_flex_r	pro_sup_l	pro_sup_r	glut_med1_l/activation	glut_med2_l/activation	glut_med3_l/activation	glut_min1_l/activation	glut_min2_l/activation	glut_min3_l/activation	semimem_l/activation	semiten_l/activation	bifemlh_l/activation	bifemsh_l/activation	sar_l/activation	add_long_l/activation	add_brev_l/activation	add_mag1_l/activation	add_mag2_l/activation	add_mag3_l/activation	tfl_l/activation	pect_l/activation	grac_l/activation	glut_max1_l/activation	glut_max2_l/activation	glut_max3_l/activation	iliacus_l/activation	psoas_l/activation	quad_fem_l/activation	gem_l/activation	peri_l/activation	rect_fem_l/activation	vas_med_l/activation	vas_int_l/activation	vas_lat_l/activation	med_gas_l/activation	lat_gas_l/activation	soleus_l/activation	tib_post_l/activation	flex_dig_l/activation	flex_hal_l/activation	tib_ant_l/activation	per_brev_l/activation	per_long_l/activation	per_tert_l/activation	ext_dig_l/activation	ext_hal_l/activation	ercspn_l/activation	intobl_l/activation	extobl_l/activation	glut_med1_r/activation	glut_med2_r/activation	glut_med3_r/activation	glut_min1_r/activation	glut_min2_r/activation	glut_min3_r/activation	semimem_r/activation	semiten_r/activation	bifemlh_r/activation	bifemsh_r/activation	sar_r/activation	add_long_r/activation	add_brev_r/activation	add_mag1_r/activation	add_mag2_r/activation	add_mag3_r/activation	tfl_r/activation	pect_r/activation	grac_r/activation	glut_max1_r/activation	glut_max2_r/activation	glut_max3_r/activation	iliacus_r/activation	psoas_r/activation	quad_fem_r/activation	gem_r/activation	peri_r/activation	rect_fem_r/activation	vas_med_r/activation	vas_int_r/activation	vas_lat_r/activation	med_gas_r/activation	lat_gas_r/activation	soleus_r/activation	tib_post_r/activation	flex_dig_r/activation	flex_hal_r/activation	tib_ant_r/activation	per_brev_r/activation	per_long_r/activation	per_tert_r/activation	ext_dig_r/activation	ext_hal_r/activation	ercspn_r/activation	intobl_r/activation	extobl_r/activation	
          1.14433811	         -2.92762441	         -2.13452503	          5.85194674	          1.43042263	          0.91832340	         -0.00243495	        -16.97262049	         -1.06223140	          5.98800300	         28.26222592	          3.56100458	         -1.54110854	         -9.44936194	        -10.29758184	         -0.17025631	          7.53633104	          5.97820198	         -6.67141756	         -1.95452357	         -4.03776584	         25.03789060	         -0.09703644	         -1.19279001	          0.17500861	         -2.28489206	          4.62898324	        -13.45120733	         15.68364105	         -7.97964802	        -13.46486287	          5.74311148	         35.98866854	         17.53220483	         86.51662706	         86.51662706	          0.31898699	          0.07368824	          0.05720218	          0.23324464	          0.14506492	          0.08441114	          0.05000775	          0.05000541	          0.05000512	          0.05000061	          0.07876437	          0.12139127	          0.07337809	          0.05953951	          0.05953671	          0.05953840	          0.23308308	          0.07099198	          0.05002779	          0.05001734	          0.05001605	          0.05005929	          0.32684294	          0.56406899	          0.05000438	          0.05000343	          0.05000036	          0.20293666	          0.14560650	          0.14762008	          0.09615293	          0.21050312	          0.28644052	          0.24617054	          0.23769901	          0.19844119	          0.26355543	          0.05000005	          0.05000095	          0.13806695	          0.05000022	          0.05000008	          0.05000029	          0.05000015	          0.05953633	          0.05953654	          0.14367918	          0.05000025	          0.12060891	          0.06854697	          0.05000094	          0.05000047	          0.19393778	          0.05000363	          0.09044599	          0.05000048	          0.05953106	          0.10051083	          0.18522685	          0.16494026	          0.13924027	          0.10143393	          0.05000107	          0.06183850	          0.09630617	          0.05000253	          0.09265922	          0.08796810	          0.05476898	          0.05062524	          0.37800454	          0.15657886	          0.09728903	          0.07088820	          0.14035847	          0.13975366	          0.11762409	          0.05953232	          0.06894747	          0.05802897	          0.05801227	          0.05000502	          0.05036696	          0.43659574	          0.24306964	          0.18253973	          0.15700353	          0.56943735	          0.12131317	          0.05000003	          0.11635839	          0.09509702	
          1.15578149	         -2.92224158	         -2.21480674	          6.12620245	          1.44806938	          0.91759300	         -0.00226030	        -16.91558322	         -1.36245748	          5.71194543	         27.51779404	          3.77935680	         -1.25650537	        -11.21693834	        -10.85771662	         -0.85218538	          6.83625225	          6.74259998	         -6.96880429	         -2.92873735	         -4.04372789	         26.24355853	         -0.15386477	         -0.95939102	          0.37310704	         -2.33011220	          4.29796713	        -13.45326773	         16.00800579	         -8.95243363	        -13.46087549	          5.73792617	         37.10668027	         17.22495750	         86.51662706	         86.51662706	          0.30696784	          0.06188537	          0.05000014	          0.37773456	          0.12182947	          0.07089080	          0.05000431	          0.05000042	          0.05000033	          0.05000107	          0.06615033	          0.13328920	          0.06162522	          0.05000338	          0.05000296	          0.05000269	          0.19575259	          0.05962996	          0.05000133	          0.05000262	          0.05000145	          0.05000093	          0.28674100	          0.54566949	          0.05000019	          0.05000110	          0.05000078	          0.17043164	          0.12229001	          0.12399094	          0.16968349	          0.17678598	          0.24056019	          0.20674040	          0.19962633	          0.16665637	          0.22134094	          0.05000069	          0.08650256	          0.12695470	          0.05000478	          0.07910221	          0.05000302	          0.05695487	          0.05000017	          0.05000037	          0.23532690	          0.22343703	          0.26605731	          0.22292962	          0.18271678	          0.15769835	          0.16287401	          0.06911192	          0.07595896	          0.08969172	          0.05000681	          0.08441174	          0.15555847	          0.13852176	          0.11694151	          0.12669457	          0.05000158	          0.05193645	          0.11238802	          0.15952679	          0.14005573	          0.10341378	          0.05000073	          0.05000056	          0.31745820	          0.13149934	          0.15760430	          0.05953385	          0.11787685	          0.11736894	          0.09878391	          0.05000119	          0.05953564	          0.05000008	          0.05000016	          0.05000167	          0.05000149	          0.55242150	          0.33379582	          0.20206346	          0.40992123	          0.53033608	          0.24361698	          0.06201952	          0.11916950	          0.07986496	
          1.16722487	         -2.91494993	         -2.28694198	          6.36258108	          1.46574267	          0.91694409	         -0.00205239	        -16.77472597	         -1.65357827	          5.44685160	         26.77156918	          3.99772474	         -0.97766437	        -13.08843506	        -11.43802344	         -1.64443807	          6.24733704	          7.47131038	         -7.24604185	         -3.94603861	         -4.06430832	         27.15803512	         -0.18795382	         -0.73434798	          0.57289967	         -2.36745787	          3.94413241	        -13.46156257	         16.30849909	         -9.88847781	        -13.45629567	          5.77936945	         38.14830440	         16.93857869	         86.51662706	         86.51662706	          0.32601601	          0.05197311	          0.05000034	          0.31723242	          0.10231572	          0.05953614	          0.05000442	          0.05000052	          0.05000047	          0.05000027	          0.05555546	          0.15073680	          0.14373823	          0.05003310	          0.05004412	          0.09012521	          0.16440112	          0.05008280	          0.05000161	          0.05001052	          0.05000814	          0.05000937	          0.24081271	          0.51602825	          0.05000062	          0.05000169	          0.05000035	          0.14313294	          0.14250588	          0.14250582	          0.14250590	          0.14846945	          0.20202871	          0.17362594	          0.16765172	          0.13996265	          0.18588810	          0.08120200	          0.11219525	          0.12308833	          0.05000157	          0.14113328	          0.05000308	          0.06861523	          0.05000006	          0.05000010	          0.32304596	          0.31385144	          0.34964747	          0.18722309	          0.15345774	          0.18410271	          0.13678593	          0.07050782	          0.07148847	          0.07532555	          0.05000136	          0.07089131	          0.13064224	          0.11633521	          0.11338439	          0.15340036	          0.05000094	          0.05000246	          0.09438709	          0.22800202	          0.18699365	          0.14985231	          0.05000023	          0.05000027	          0.26660988	          0.11043690	          0.13236241	          0.05000019	          0.15134734	          0.15291207	          0.13012481	          0.05000009	          0.05000020	          0.05000005	          0.05000055	          0.05000057	          0.05000064	          0.62761319	          0.34123230	          0.19692072	          0.45166893	          0.62466724	          0.30521435	          0.08038887	          0.10008200	          0.06707268	
          1.17866825	         -2.90632846	         -2.35250705	          6.56339939	          1.48327668	          0.91641694	         -0.00182138	        -16.52284772	         -1.93062227	          5.19403744	         26.08087151	          4.22752107	         -0.70837308	        -15.09268922	        -12.10014863	         -2.54963305	          5.66678006	          8.14699463	         -7.54481970	         -4.89387572	         -4.03788670	         27.54154252	         -0.21334540	         -0.52905104	          0.77731258	         -2.39609601	          3.60189283	        -13.47178040	         16.60853871	        -10.75801011	        -13.45349990	          5.86445768	         39.08522527	         16.65922795	         86.51662706	         86.51662706	          0.27379805	          0.05000025	          0.05000013	          0.26642610	          0.08592759	          0.05000071	          0.05000624	          0.05000097	          0.05000128	          0.05000039	          0.05000256	          0.18611495	          0.21174732	          0.05000462	          0.05001411	          0.13927053	          0.13807401	          0.05004109	          0.05000108	          0.05000328	          0.05000209	          0.05000162	          0.20224088	          0.47896192	          0.05000021	          0.05000093	          0.05000039	          0.12020677	          0.11968027	          0.11968023	          0.11968027	          0.12468849	          0.16966898	          0.14581557	          0.14871012	          0.11754489	          0.15611417	          0.10487382	          0.11967274	          0.11394995	          0.06616281	          0.20119092	          0.10055169	          0.09506006	          0.05000006	          0.05000010	          0.39519374	          0.38169025	          0.41037608	          0.16944283	          0.12888393	          0.23137039	          0.11487650	          0.08521654	          0.07207161	          0.06326053	          0.05000068	          0.05953706	          0.14278898	          0.22098362	          0.21746712	          0.18014970	          0.05000070	          0.05003731	          0.10709857	          0.27113067	          0.22309142	          0.19238962	          0.05000026	          0.05000025	          0.22390610	          0.09274810	          0.16243021	          0.05000019	          0.20754481	          0.21109542	          0.17634026	          0.05000010	          0.05000021	          0.05000003	          0.05000006	          0.05000087	          0.05000059	          0.67161381	          0.28657585	          0.16537920	          0.50373318	          0.61119203	          0.34550966	          0.08525625	          0.08405176	          0.05632941	
